<svg width="79" height="38" viewBox="0 0 79 38" fill="none" xmlns="http://www.w3.org/2000/svg">
<path fill-rule="evenodd" clip-rule="evenodd" d="M78.086 0.255013C78.4975 0.302492 78.7925 0.674555 78.7451 1.08604C78.356 4.45803 77.2803 6.85332 75.8167 8.60123C74.3579 10.3433 72.5587 11.3882 70.8141 12.1338C69.9435 12.5059 69.0775 12.8071 68.2738 13.0802C68.1775 13.1129 68.0824 13.1452 67.9883 13.177C67.2873 13.4146 66.6476 13.6314 66.07 13.8663C64.7316 14.4106 63.9813 14.9581 63.7087 15.7454C62.5182 19.1846 60.5929 20.8578 58.2634 21.4129C56.0265 21.9459 53.5512 21.4069 51.3313 20.7951C50.8373 20.6589 50.3658 20.5219 49.9072 20.3887C49.2927 20.2102 48.7014 20.0384 48.1104 19.8844C47.0967 19.6202 46.2025 19.4426 45.4386 19.4245C44.6788 19.4066 44.1213 19.5485 43.7129 19.85C43.3113 20.1464 42.9465 20.6767 42.7329 21.6594C42.0914 24.6104 41.1383 26.5191 39.8607 27.7703C38.576 29.0284 37.0489 29.5362 35.4625 29.8599C34.8515 29.9846 34.2302 30.0844 33.598 30.1858C30.9248 30.6149 28.0586 31.075 24.9729 33.5822C22.8913 35.2735 21.0776 35.9964 19.3948 36.0234C17.7178 36.0503 16.3016 35.3824 15.0328 34.569C14.4417 34.1901 13.8635 33.7667 13.3025 33.3558C13.2626 33.3266 13.2228 33.2975 13.183 33.2684C12.5771 32.825 11.9874 32.3978 11.3784 32.0204C10.1658 31.2691 8.93026 30.7501 7.5 30.7501C5.14444 30.7501 3.7446 31.7148 2.90865 32.8758C2.04516 34.0751 1.75 35.5368 1.75 36.5001C1.75 36.9143 1.41421 37.2501 1 37.2501C0.585786 37.2501 0.25 36.9143 0.25 36.5001C0.25 35.2967 0.604836 33.5084 1.69135 31.9993C2.8054 30.4521 4.65556 29.2501 7.5 29.2501C9.31974 29.2501 10.8342 29.9186 12.1685 30.7454C12.8329 31.1571 13.4658 31.6166 14.0689 32.0579C14.1058 32.0849 14.1426 32.1119 14.1793 32.1388C14.7495 32.5562 15.292 32.9534 15.8422 33.3062C17.0109 34.0553 18.1259 34.5436 19.3708 34.5236C20.6099 34.5037 22.1087 33.9767 24.0271 32.418C27.4528 29.6346 30.7683 29.1099 33.4661 28.683C34.0637 28.5885 34.631 28.4987 35.1625 28.3902C36.6386 28.089 37.8303 27.6592 38.8112 26.6986C39.7992 25.731 40.6586 24.1397 41.2671 21.3407C41.5322 20.1214 42.0421 19.2189 42.8221 18.6431C43.5954 18.0724 44.5267 17.9026 45.4739 17.925C46.417 17.9472 47.4478 18.1616 48.4886 18.4328C49.0845 18.5881 49.7242 18.7737 50.3658 18.9598C50.8246 19.0928 51.2844 19.2262 51.7298 19.349C53.958 19.9631 56.0924 20.3882 57.9157 19.9537C59.6464 19.5413 61.2318 18.3155 62.2913 15.2547C62.7945 13.8008 64.1196 13.0402 65.5048 12.4768C66.127 12.2237 66.8129 11.9914 67.5077 11.7561C67.602 11.7241 67.6966 11.6921 67.7911 11.66C68.5919 11.3878 69.4109 11.1023 70.2246 10.7545C71.8485 10.0604 73.4147 9.13328 74.6666 7.63821C75.9136 6.14901 76.894 4.04211 77.2549 0.914102C77.3024 0.502618 77.6745 0.207535 78.086 0.255013Z" fill="#763FF9"/>
</svg>
