<svg width="552" height="475" viewBox="0 0 552 475" fill="none" xmlns="http://www.w3.org/2000/svg">
<path fill-rule="evenodd" clip-rule="evenodd" d="M266 44.5C162.999 44.5 79.5 127.999 79.5 231C79.5 334.001 162.999 417.5 266 417.5C369.001 417.5 452.5 334.001 452.5 231C452.5 127.999 369.001 44.5 266 44.5ZM54.5 231C54.5 114.192 149.192 19.5 266 19.5C382.808 19.5 477.5 114.192 477.5 231C477.5 347.808 382.808 442.5 266 442.5C149.192 442.5 54.5 347.808 54.5 231Z" fill="#F3F3F3"/>
<path fill-rule="evenodd" clip-rule="evenodd" d="M433 231C433 138.768 358.232 64 266 64V0C393.578 0 497 103.422 497 231C497 358.578 393.578 462 266 462V398C358.232 398 433 323.232 433 231Z" fill="url(#paint0_linear)"/>
<path fill-rule="evenodd" clip-rule="evenodd" d="M266 385.5C309.346 385.5 348.456 367.708 376.565 338.915L440.251 401.085C396.085 446.327 334.293 474.5 266 474.5C202.272 474.5 144.174 449.959 100.804 409.893L161.196 344.52C188.773 369.995 225.525 385.5 266 385.5Z" fill="url(#paint1_linear)"/>
<path d="M240.021 218.277V211.787L257.241 194.906C258.629 193.502 259.719 192.356 260.51 191.468C261.301 190.58 262.044 189.635 262.738 188.634C263.432 187.617 263.925 186.656 264.215 185.752C264.506 184.832 264.651 183.863 264.651 182.846C264.651 180.553 263.876 178.721 262.326 177.348C260.793 175.976 258.823 175.29 256.417 175.29C253.947 175.29 251.969 176.032 250.484 177.518C249.014 179.003 248.28 181.005 248.28 183.524H239.731C239.731 180.44 240.441 177.72 241.862 175.362C243.299 172.989 245.285 171.173 247.82 169.913C250.371 168.638 253.277 168 256.538 168C258.992 168 261.261 168.363 263.344 169.09C265.442 169.816 267.21 170.817 268.647 172.093C270.1 173.352 271.231 174.87 272.038 176.646C272.861 178.422 273.273 180.335 273.273 182.386C273.273 184.307 272.91 186.139 272.183 187.883C271.473 189.627 270.23 191.597 268.454 193.792C266.694 195.988 264.199 198.636 260.97 201.736L252.421 210.43V210.769H274.024V218.277H240.021Z" fill="black"/>
<path d="M302.553 168.678V218.277H293.568V177.421H293.277L281.677 184.832V176.597L294.004 168.678H302.553Z" fill="black"/>
<path d="M207.686 260.203V236.931H216.414C217.724 236.931 218.902 237.124 219.948 237.51C220.993 237.897 221.853 238.434 222.527 239.124C223.209 239.806 223.728 240.616 224.084 241.556C224.44 242.495 224.618 243.522 224.618 244.635C224.618 245.756 224.436 246.787 224.073 247.726C223.717 248.666 223.194 249.48 222.504 250.169C221.823 250.851 220.955 251.385 219.902 251.772C218.857 252.15 217.675 252.34 216.357 252.34H211.902V260.203H207.686ZM211.902 248.874H215.789C217.296 248.874 218.429 248.491 219.186 247.726C219.944 246.961 220.323 245.931 220.323 244.635C220.323 243.34 219.944 242.321 219.186 241.578C218.429 240.828 217.289 240.453 215.766 240.453H211.902V248.874Z" fill="#00162F"/>
<path d="M228.098 260.203V242.749H232.087V245.658H232.269C232.579 244.658 233.121 243.881 233.894 243.328C234.666 242.775 235.56 242.499 236.575 242.499C237.144 242.499 237.636 242.537 238.053 242.612V246.397C237.56 246.237 236.924 246.158 236.144 246.158C235.007 246.158 234.068 246.514 233.325 247.226C232.583 247.931 232.212 248.836 232.212 249.942V260.203H228.098Z" fill="#00162F"/>
<path d="M252.101 259.431C250.836 260.173 249.362 260.544 247.681 260.544C245.999 260.544 244.522 260.173 243.249 259.431C241.984 258.681 241.01 257.628 240.328 256.272C239.654 254.908 239.317 253.332 239.317 251.544C239.317 249.756 239.654 248.181 240.328 246.817C241.01 245.453 241.984 244.397 243.249 243.647C244.522 242.897 245.999 242.522 247.681 242.522C249.362 242.522 250.836 242.897 252.101 243.647C253.374 244.397 254.347 245.453 255.022 246.817C255.703 248.181 256.044 249.756 256.044 251.544C256.044 253.332 255.703 254.908 255.022 256.272C254.347 257.628 253.374 258.681 252.101 259.431ZM247.703 257.249C248.605 257.249 249.374 256.991 250.01 256.476C250.647 255.961 251.116 255.283 251.419 254.442C251.722 253.594 251.874 252.624 251.874 251.533C251.874 250.442 251.722 249.472 251.419 248.624C251.124 247.775 250.654 247.09 250.01 246.567C249.374 246.044 248.605 245.783 247.703 245.783C247.014 245.783 246.397 245.934 245.851 246.237C245.313 246.533 244.874 246.942 244.533 247.465C244.192 247.987 243.931 248.594 243.749 249.283C243.575 249.972 243.487 250.722 243.487 251.533C243.487 252.624 243.639 253.594 243.942 254.442C244.245 255.283 244.718 255.961 245.362 256.476C246.006 256.991 246.787 257.249 247.703 257.249Z" fill="#00162F"/>
<path d="M259.536 242.749H263.649V261.169C263.649 263.033 263.123 264.431 262.07 265.362C261.017 266.302 259.502 266.753 257.524 266.715C257.471 266.715 257.358 266.711 257.183 266.703C257.002 266.703 256.854 266.7 256.74 266.692V263.34C257.043 263.355 257.24 263.362 257.331 263.362C258.104 263.362 258.665 263.173 259.013 262.794C259.361 262.423 259.536 261.862 259.536 261.112V242.749ZM261.581 240.272C260.922 240.272 260.358 240.056 259.888 239.624C259.426 239.184 259.195 238.658 259.195 238.044C259.195 237.423 259.426 236.897 259.888 236.465C260.358 236.025 260.922 235.806 261.581 235.806C262.233 235.806 262.789 236.025 263.252 236.465C263.721 236.897 263.956 237.423 263.956 238.044C263.956 238.658 263.721 239.184 263.252 239.624C262.789 240.056 262.233 240.272 261.581 240.272Z" fill="#00162F"/>
<path d="M275.607 260.544C272.986 260.544 270.917 259.737 269.402 258.124C267.887 256.51 267.129 254.328 267.129 251.578C267.129 249.798 267.467 248.222 268.141 246.851C268.823 245.48 269.789 244.416 271.039 243.658C272.296 242.9 273.747 242.522 275.391 242.522C276.489 242.522 277.508 242.7 278.448 243.056C279.395 243.404 280.239 243.927 280.982 244.624C281.724 245.321 282.307 246.245 282.732 247.397C283.156 248.541 283.368 249.855 283.368 251.34V252.601H271.209C271.224 254.078 271.633 255.237 272.436 256.078C273.247 256.919 274.323 257.34 275.664 257.34C276.565 257.34 277.338 257.147 277.982 256.76C278.626 256.374 279.084 255.817 279.357 255.09L283.198 255.522C282.826 257.059 281.97 258.283 280.629 259.192C279.289 260.094 277.614 260.544 275.607 260.544ZM271.22 249.828H279.425C279.41 248.631 279.035 247.65 278.3 246.885C277.573 246.112 276.622 245.726 275.448 245.726C274.251 245.726 273.262 246.124 272.482 246.919C271.709 247.707 271.289 248.677 271.22 249.828Z" fill="#00162F"/>
<path d="M294.462 260.544C292.757 260.544 291.269 260.162 289.996 259.397C288.723 258.631 287.754 257.571 287.087 256.215C286.428 254.859 286.098 253.302 286.098 251.544C286.098 249.779 286.435 248.215 287.11 246.851C287.784 245.487 288.754 244.427 290.019 243.669C291.284 242.904 292.757 242.522 294.439 242.522C296.568 242.522 298.314 243.094 299.678 244.237C301.041 245.381 301.795 246.9 301.939 248.794H298.007C297.841 247.916 297.45 247.203 296.837 246.658C296.231 246.112 295.45 245.84 294.496 245.84C293.216 245.84 292.189 246.344 291.416 247.351C290.651 248.359 290.269 249.734 290.269 251.476C290.269 253.249 290.647 254.647 291.405 255.669C292.17 256.684 293.2 257.192 294.496 257.192C295.405 257.192 296.174 256.934 296.803 256.419C297.432 255.897 297.833 255.169 298.007 254.237H301.939C301.788 256.124 301.041 257.647 299.7 258.806C298.367 259.965 296.621 260.544 294.462 260.544Z" fill="#00162F"/>
<path d="M314.033 242.749V245.931H310.59V254.953C310.59 255.719 310.753 256.249 311.078 256.544C311.412 256.832 311.87 256.976 312.453 256.976C312.832 256.976 313.234 256.923 313.658 256.817L314.351 260.033C313.609 260.283 312.802 260.419 311.931 260.442C310.317 260.487 309.003 260.094 307.987 259.26C306.972 258.427 306.468 257.219 306.476 255.635V245.931H303.999V242.749H306.476V238.567H310.59V242.749H314.033Z" fill="#00162F"/>
<path d="M331.019 247.362L327.269 247.772C327.094 247.143 326.735 246.624 326.189 246.215C325.651 245.798 324.939 245.59 324.053 245.59C323.189 245.59 322.469 245.779 321.894 246.158C321.318 246.529 321.034 247.006 321.041 247.59C321.034 248.097 321.223 248.514 321.61 248.84C321.996 249.158 322.629 249.416 323.507 249.612L326.485 250.249C328.136 250.605 329.363 251.173 330.166 251.953C330.977 252.726 331.386 253.734 331.394 254.976C331.386 256.628 330.689 257.969 329.303 258.999C327.916 260.029 326.129 260.544 323.939 260.544C321.81 260.544 320.094 260.097 318.791 259.203C317.488 258.309 316.708 257.056 316.45 255.442L320.462 255.056C320.636 255.836 321.019 256.431 321.61 256.84C322.208 257.241 322.981 257.442 323.928 257.442C324.89 257.442 325.67 257.245 326.269 256.851C326.875 256.457 327.178 255.957 327.178 255.351C327.178 254.374 326.394 253.711 324.825 253.362L321.848 252.737C318.56 252.056 316.924 250.416 316.939 247.817C316.939 246.756 317.231 245.825 317.814 245.022C318.405 244.219 319.235 243.601 320.303 243.169C321.371 242.737 322.602 242.522 323.996 242.522C325.996 242.522 327.594 242.95 328.791 243.806C329.988 244.662 330.731 245.847 331.019 247.362Z" fill="#00162F"/>
<path d="M212.483 293.277V277.277H214.42V291.558H221.858V293.277H212.483Z" fill="#B6C5D4"/>
<path d="M228.139 293.558C227.373 293.558 226.683 293.417 226.069 293.136C225.454 292.85 224.962 292.425 224.592 291.863C224.227 291.295 224.045 290.631 224.045 289.871C224.045 289.49 224.095 289.144 224.194 288.832C224.293 288.514 224.418 288.243 224.569 288.019C224.725 287.795 224.928 287.595 225.178 287.417C225.433 287.24 225.683 287.097 225.928 286.988C226.173 286.873 226.467 286.772 226.811 286.683C227.155 286.595 227.462 286.527 227.733 286.48C228.003 286.433 228.326 286.386 228.701 286.339C228.905 286.313 229.131 286.287 229.381 286.261C229.631 286.23 229.829 286.207 229.975 286.191C230.126 286.175 230.29 286.154 230.467 286.128C230.649 286.102 230.79 286.079 230.889 286.058C230.993 286.037 231.102 286.011 231.217 285.98C231.337 285.944 231.425 285.904 231.483 285.863C231.54 285.821 231.595 285.772 231.647 285.714C231.704 285.652 231.743 285.584 231.764 285.511C231.785 285.433 231.795 285.345 231.795 285.246V285.183C231.795 284.402 231.582 283.8 231.155 283.378C230.727 282.957 230.097 282.746 229.264 282.746C228.842 282.746 228.451 282.798 228.092 282.902C227.738 283.006 227.436 283.149 227.186 283.332C226.936 283.509 226.725 283.699 226.553 283.902C226.386 284.105 226.248 284.324 226.139 284.558L224.389 283.933C224.613 283.407 224.907 282.954 225.272 282.574C225.636 282.194 226.037 281.902 226.475 281.699C226.918 281.496 227.36 281.35 227.803 281.261C228.251 281.167 228.717 281.121 229.201 281.121C229.451 281.121 229.694 281.134 229.928 281.16C230.168 281.181 230.441 281.227 230.748 281.3C231.056 281.373 231.337 281.47 231.592 281.589C231.852 281.709 232.113 281.878 232.373 282.097C232.634 282.316 232.852 282.571 233.03 282.863C233.212 283.149 233.358 283.509 233.467 283.941C233.582 284.368 233.639 284.845 233.639 285.371V293.277H231.795V291.652H231.701C231.597 291.865 231.454 292.076 231.272 292.285C231.089 292.488 230.858 292.691 230.576 292.894C230.295 293.092 229.941 293.251 229.514 293.371C229.092 293.496 228.634 293.558 228.139 293.558ZM228.42 291.902C228.946 291.902 229.428 291.819 229.865 291.652C230.303 291.485 230.66 291.261 230.936 290.98C231.212 290.699 231.423 290.384 231.569 290.035C231.72 289.681 231.795 289.313 231.795 288.933V287.246C231.602 287.475 230.605 287.696 228.803 287.91C228.709 287.92 228.644 287.928 228.608 287.933C228.212 287.985 227.865 288.053 227.569 288.136C227.272 288.22 226.988 288.337 226.717 288.488C226.451 288.639 226.246 288.839 226.1 289.089C225.959 289.334 225.889 289.626 225.889 289.964C225.889 290.584 226.121 291.063 226.584 291.402C227.048 291.735 227.66 291.902 228.42 291.902Z" fill="#B6C5D4"/>
<path d="M245.504 283.964L243.848 284.433C243.405 283.287 242.541 282.714 241.254 282.714C240.52 282.714 239.908 282.884 239.418 283.222C238.934 283.556 238.692 283.98 238.692 284.496C238.692 284.949 238.853 285.311 239.176 285.582C239.504 285.847 240.03 286.069 240.754 286.246L242.535 286.683C243.608 286.944 244.408 287.342 244.934 287.878C245.46 288.415 245.723 289.1 245.723 289.933C245.723 290.975 245.288 291.834 244.418 292.511C243.548 293.188 242.421 293.527 241.035 293.527C239.796 293.527 238.778 293.259 237.981 292.722C237.189 292.186 236.686 291.412 236.473 290.402L238.223 289.964C238.551 291.256 239.478 291.902 241.004 291.902C241.843 291.902 242.52 291.722 243.035 291.363C243.556 291.003 243.817 290.558 243.817 290.027C243.817 289.178 243.223 288.615 242.035 288.339L240.035 287.871C237.91 287.376 236.848 286.282 236.848 284.589C236.848 283.579 237.265 282.748 238.098 282.097C238.931 281.446 239.983 281.121 241.254 281.121C243.442 281.121 244.858 282.069 245.504 283.964Z" fill="#B6C5D4"/>
<path d="M253.717 281.277V282.839H251.155V289.839C251.155 290.214 251.196 290.527 251.28 290.777C251.368 291.027 251.493 291.214 251.655 291.339C251.816 291.459 251.98 291.542 252.147 291.589C252.319 291.631 252.519 291.652 252.748 291.652C252.977 291.652 253.248 291.621 253.561 291.558L253.936 293.214C253.545 293.36 253.087 293.433 252.561 293.433C252.16 293.433 251.769 293.368 251.389 293.238C251.014 293.108 250.668 292.92 250.35 292.675C250.037 292.431 249.785 292.108 249.592 291.707C249.405 291.3 249.311 290.845 249.311 290.339V282.839H247.498V281.277H249.311V278.402H251.155V281.277H253.717Z" fill="#B6C5D4"/>
<path d="M262.928 277.277H265.24L270.678 290.558H270.865L276.303 277.277H278.615V293.277H276.803V281.121H276.647L271.647 293.277H269.897L264.897 281.121H264.74V293.277H262.928V277.277Z" fill="#B6C5D4"/>
<path d="M291.063 291.832C290.063 292.962 288.75 293.527 287.125 293.527C285.5 293.527 284.188 292.962 283.188 291.832C282.188 290.696 281.688 289.199 281.688 287.339C281.688 286.105 281.914 285.016 282.367 284.074C282.821 283.131 283.459 282.404 284.281 281.894C285.104 281.378 286.052 281.121 287.125 281.121C288.198 281.121 289.146 281.378 289.969 281.894C290.792 282.404 291.43 283.131 291.883 284.074C292.336 285.016 292.563 286.105 292.563 287.339C292.563 289.199 292.063 290.696 291.063 291.832ZM285.524 291.503C285.992 291.748 286.526 291.871 287.125 291.871C287.724 291.871 288.255 291.748 288.719 291.503C289.188 291.259 289.565 290.925 289.852 290.503C290.138 290.082 290.354 289.602 290.5 289.066C290.646 288.529 290.719 287.954 290.719 287.339C290.719 286.725 290.646 286.149 290.5 285.613C290.354 285.071 290.138 284.587 289.852 284.16C289.565 283.733 289.188 283.397 288.719 283.152C288.255 282.902 287.724 282.777 287.125 282.777C286.526 282.777 285.992 282.902 285.524 283.152C285.06 283.397 284.685 283.733 284.399 284.16C284.112 284.587 283.896 285.071 283.75 285.613C283.604 286.149 283.531 286.725 283.531 287.339C283.531 287.954 283.604 288.529 283.75 289.066C283.896 289.602 284.112 290.082 284.399 290.503C284.685 290.925 285.06 291.259 285.524 291.503Z" fill="#B6C5D4"/>
<path d="M297.221 286.058V293.277H295.377V281.277H297.158V283.152H297.315C297.606 282.516 298.044 282.019 298.627 281.66C299.211 281.3 299.94 281.121 300.815 281.121C302.07 281.121 303.059 281.503 303.783 282.269C304.513 283.035 304.877 284.162 304.877 285.652V293.277H303.033V285.777C303.033 284.839 302.789 284.105 302.299 283.574C301.815 283.042 301.143 282.777 300.283 282.777C299.377 282.777 298.64 283.069 298.073 283.652C297.505 284.235 297.221 285.037 297.221 286.058Z" fill="#B6C5D4"/>
<path d="M313.465 281.277V282.839H310.903V289.839C310.903 290.214 310.944 290.527 311.028 290.777C311.116 291.027 311.241 291.214 311.403 291.339C311.564 291.459 311.728 291.542 311.895 291.589C312.067 291.631 312.267 291.652 312.496 291.652C312.726 291.652 312.996 291.621 313.309 291.558L313.684 293.214C313.293 293.36 312.835 293.433 312.309 293.433C311.908 293.433 311.517 293.368 311.137 293.238C310.762 293.108 310.416 292.92 310.098 292.675C309.785 292.431 309.533 292.108 309.34 291.707C309.153 291.3 309.059 290.845 309.059 290.339V282.839H307.246V281.277H309.059V278.402H310.903V281.277H313.465Z" fill="#B6C5D4"/>
<path d="M318.34 286.058V293.277H316.496V277.277H318.34V283.152H318.496C319.111 281.798 320.288 281.121 322.028 281.121C323.298 281.121 324.298 281.501 325.028 282.261C325.757 283.022 326.121 284.152 326.121 285.652V293.277H324.278V285.777C324.278 284.829 324.03 284.092 323.535 283.566C323.046 283.04 322.366 282.777 321.496 282.777C320.564 282.777 319.804 283.069 319.215 283.652C318.632 284.235 318.34 285.037 318.34 286.058Z" fill="#B6C5D4"/>
<defs>
<linearGradient id="paint0_linear" x1="395.952" y1="577.472" x2="707.718" y2="77.2828" gradientUnits="userSpaceOnUse">
<stop stop-color="#F39081"/>
<stop offset="0.62379" stop-color="#F85B43"/>
</linearGradient>
<linearGradient id="paint1_linear" x1="95.6606" y1="451.553" x2="665.606" y2="477.342" gradientUnits="userSpaceOnUse">
<stop stop-color="#B596FE"/>
<stop offset="1" stop-color="#824EFF"/>
</linearGradient>
</defs>
</svg>
