<svg xmlns="http://www.w3.org/2000/svg" xmlns:xlink="http://www.w3.org/1999/xlink" width="1440" height="900" viewBox="0 0 1440 900">
  <defs>
    <clipPath id="clip-path">
      <path id="Path_22" data-name="Path 22" d="M0,0H1440V900H0Z" transform="translate(5175.577 -8507)" fill="#f8faff"/>
    </clipPath>
  </defs>
  <g id="Hero_Wave_01" data-name="Hero Wave 01" transform="translate(-5175.577 8507)" clip-path="url(#clip-path)">
    <g id="Group_6" data-name="Group 6">
      <path id="Path_23" data-name="Path 23" d="M1077.67,514.874C1221.66,553.22,1263.5,691.111,1347.66,791.2c89.54,106.494,245.84,183.381,237.54,327.28-8.47,146.65-129.4,304.14-279.97,407.74-137.43,94.57-317.711,45.41-473.123,110.45-188.619,78.94-319.831,293.49-514.1,302.72-195.077,9.27-349.522-116.53-412.283-258.71-59.476-134.73,72.041-302.18,95.77-458.32,24.016-158.03-83.9-322.973,43.8-460.044,127.5-136.864,357.034-127.448,545.605-172.645C756.795,549.907,931.33,475.9,1077.67,514.874Z" transform="translate(5175.577 -8507)" fill="none" stroke="#e6eaf5" stroke-width="1" fill-rule="evenodd"/>
      <path id="Path_24" data-name="Path 24" d="M1032.43,595.023c127.85,34.044,164.98,156.463,239.7,245.322,79.5,94.546,218.26,162.805,210.89,290.555-7.51,130.2-114.88,270.02-248.55,362-122.02,83.95-282.069,40.31-420.044,98.06C646.969,1661.04,530.48,1851.51,358,1859.71,184.813,1867.94,47.7,1756.26-8.023,1630.03c-52.8-119.62,63.958-268.28,85.024-406.9C98.323,1082.83,2.519,936.394,115.885,814.7,229.08,693.194,432.86,701.554,600.273,661.428,747.564,626.125,902.516,560.425,1032.43,595.023Z" transform="translate(5175.577 -8507)" fill="none" stroke="#e6eaf5" stroke-width="1" fill-rule="evenodd"/>
      <path id="Path_25" data-name="Path 25" d="M985.689,677.852c111.141,29.6,143.431,136.028,208.391,213.282,69.11,82.2,189.76,141.546,183.35,252.606-6.54,113.2-99.88,234.75-216.1,314.72-106.07,72.99-245.222,35.05-365.177,85.25-145.586,60.93-246.861,226.53-396.812,233.65-150.57,7.16-269.778-89.94-318.221-199.68-45.906-103.99,55.6-233.24,73.919-353.75,18.537-121.98-64.754-249.292,33.805-355.09C287.256,763.2,464.422,770.469,609.97,735.584,738.024,704.892,872.739,647.773,985.689,677.852Z" transform="translate(5175.577 -8507)" fill="none" stroke="#e6eaf5" stroke-width="1" fill-rule="evenodd"/>
      <path id="Path_26" data-name="Path 26" d="M942.355,754.637c95.665,25.476,123.455,117.084,179.365,183.58,59.49,70.753,163.34,121.833,157.82,217.433-5.63,97.43-85.97,202.05-186,270.89-91.31,62.82-211.076,30.16-314.326,73.37-125.311,52.45-212.483,194.98-341.551,201.12-129.6,6.15-232.208-77.42-273.9-171.88-39.513-89.51,47.861-200.75,63.625-304.49,15.956-104.98-55.736-214.57,29.1-305.632,84.707-90.928,237.2-84.672,362.479-114.7C729.18,777.911,845.134,728.747,942.355,754.637Z" transform="translate(5175.577 -8507)" fill="none" stroke="#e6eaf5" stroke-width="1" fill-rule="evenodd"/>
      <path id="Path_27" data-name="Path 27" d="M897.23,834.595c79.547,21.183,102.657,97.358,149.15,152.65,49.47,58.835,135.81,101.305,131.22,180.8-4.67,81.02-71.48,168.02-154.66,225.25-75.92,52.24-175.511,25.09-261.365,61.02-104.2,43.6-176.684,162.13-284.006,167.23-107.766,5.12-193.086-64.37-227.757-142.92-32.856-74.43,39.8-166.93,52.906-253.19,13.267-87.3-46.346-178.42,24.2-254.141,70.434-75.608,197.236-70.406,301.407-95.374C719.971,853.948,816.389,813.067,897.23,834.595Z" transform="translate(5175.577 -8507)" fill="none" stroke="#e6eaf5" stroke-width="1" fill-rule="evenodd"/>
    </g>
  </g>
</svg>
