<svg xmlns="http://www.w3.org/2000/svg" width="22.25" height="18.34" viewBox="0 0 22.25 18.34">
  <metadata><?xpacket begin="﻿" id="W5M0MpCehiHzreSzNTczkc9d"?>
<x:xmpmeta xmlns:x="adobe:ns:meta/" x:xmptk="Adobe XMP Core 5.6-c138 79.159824, 2016/09/14-01:09:01        ">
   <rdf:RDF xmlns:rdf="http://www.w3.org/1999/02/22-rdf-syntax-ns#">
      <rdf:Description rdf:about=""/>
   </rdf:RDF>
</x:xmpmeta>
                                                                                                    
                                                                                                    
                                                                                                    
                                                                                                    
                                                                                                    
                                                                                                    
                                                                                                    
                                                                                                    
                                                                                                    
                                                                                                    
                                                                                                    
                                                                                                    
                                                                                                    
                                                                                                    
                                                                                                    
                                                                                                    
                                                                                                    
                                                                                                    
                                                                                                    
                                                                                                    
                           
<?xpacket end="w"?></metadata>
<defs>
    <style>
      .cls-1 {
        fill: #fff;
        fill-rule: evenodd;
      }
    </style>
  </defs>
  <path id="Forma_1" data-name="Forma 1" class="cls-1" d="M966.632,4402.01a9.13,9.13,0,0,1-2.9,1.12,4.521,4.521,0,0,0-3.33-1.46,4.6,4.6,0,0,0-4.564,4.63,4.681,4.681,0,0,0,.118,1.05,12.889,12.889,0,0,1-9.406-4.84,4.681,4.681,0,0,0,1.412,6.18,4.413,4.413,0,0,1-2.067-.58v0.06a4.624,4.624,0,0,0,3.66,4.54,4.743,4.743,0,0,1-1.2.16,4.866,4.866,0,0,1-.859-0.08,4.575,4.575,0,0,0,4.262,3.21,9.081,9.081,0,0,1-5.667,1.98,9.773,9.773,0,0,1-1.089-.06,12.814,12.814,0,0,0,7,2.08c8.394,0,12.984-7.05,12.984-13.17l-0.015-.6a9.358,9.358,0,0,0,2.281-2.39,9.561,9.561,0,0,1-2.621.73A4.7,4.7,0,0,0,966.632,4402.01Z" transform="translate(-945 -4401.66)"/>
</svg>
