<svg width="64" height="40" viewBox="0 0 64 40" fill="none" xmlns="http://www.w3.org/2000/svg">
<g clip-path="url(#clip0)">
<rect width="64" height="40" fill="#1A1F71"/>
<path fill-rule="evenodd" clip-rule="evenodd" d="M31.7868 17.3231C31.7608 19.3923 33.6195 20.547 35.0196 21.2336C36.4582 21.9381 36.9414 22.3898 36.936 23.0197C36.925 23.9838 35.7883 24.4092 34.7245 24.4258C32.8685 24.4547 31.7896 23.9216 30.9316 23.5183L30.2632 26.6662C31.1238 27.0655 32.7176 27.4136 34.3704 27.4288C38.2497 27.4288 40.7877 25.5018 40.8016 22.5141C40.8166 18.7225 35.5893 18.5125 35.625 16.8176C35.6373 16.3038 36.1246 15.7553 37.1926 15.6159C37.7211 15.5455 39.1803 15.4915 40.8345 16.2581L41.4837 13.2125C40.5942 12.8864 39.4507 12.5742 38.0273 12.5742C34.3758 12.5742 31.8075 14.5274 31.7868 17.3231V17.3231ZM47.7228 12.8366C47.0145 12.8366 46.4173 13.2525 46.151 13.8906L40.6093 27.205H44.4859L45.2573 25.0598H49.9946L50.4421 27.205H53.8588L50.8772 12.8366H47.7228ZM48.265 16.7181L49.3837 22.1135H46.3198L48.265 16.7181ZM27.0867 12.8366L24.031 27.205H27.725L30.7793 12.8366H27.0867ZM21.6219 12.8366L17.7769 22.6162L16.2216 14.3008C16.039 13.3727 15.3184 12.8366 14.518 12.8366H8.23242L8.14453 13.2539C9.43493 13.5356 10.901 13.9901 11.7891 14.4763C12.3326 14.7732 12.4878 15.0329 12.6662 15.7388L15.6121 27.205H19.5162L25.5012 12.8366H21.6219Z" fill="white"/>
</g>
<defs>
<clipPath id="clip0">
<rect width="64" height="40" fill="white"/>
</clipPath>
</defs>
</svg>
