<svg width="425" height="445" viewBox="0 0 425 445" fill="none" xmlns="http://www.w3.org/2000/svg">
<path opacity="0.67" d="M269 168.5C269 205.227 298.773 235 335.5 235C372.227 235 402 205.227 402 168.5C402 131.773 372.227 102 335.5 102C298.773 102 269 131.773 269 168.5Z" fill="url(#paint0_linear)"/>
<path opacity="0.67" d="M192 328.5C192 392.841 244.159 445 308.5 445C372.841 445 425 392.841 425 328.5C425 264.159 372.841 212 308.5 212C244.159 212 192 264.159 192 328.5Z" fill="url(#paint1_linear)"/>
<path opacity="0.67" d="M-6.3245e-06 149.5C-6.3245e-06 232.067 66.9334 299 149.5 299C232.067 299 299 232.067 299 149.5C299 66.9334 232.067 0 149.5 0C66.9334 0 -6.3245e-06 66.9334 -6.3245e-06 149.5Z" fill="url(#paint2_linear)"/>
<path d="M127.204 125C129.168 125 131.019 125.241 132.758 125.722C134.497 126.204 136.161 127.009 137.75 128.137C139.339 129.265 140.704 130.68 141.843 132.38C142.982 134.08 143.889 136.239 144.564 138.856C145.254 141.459 145.599 144.4 145.599 147.68C145.584 155.458 143.889 161.559 140.516 165.982C137.158 170.405 132.608 172.616 126.866 172.616C122.354 172.616 118.606 171.33 115.622 168.757C112.639 166.185 110.915 162.913 110.45 158.941H120.052C120.427 160.611 121.214 161.912 122.414 162.845C123.613 163.778 125.097 164.244 126.866 164.244C129.835 164.244 132.106 162.95 133.68 160.363C135.254 157.775 136.049 154.157 136.064 149.508H135.749C134.729 151.524 133.178 153.119 131.094 154.292C129.01 155.45 126.694 156.03 124.145 156.03C122.136 156.03 120.255 155.661 118.501 154.924C116.747 154.172 115.24 153.141 113.981 151.832C112.736 150.523 111.755 148.944 111.035 147.093C110.33 145.243 109.985 143.249 110 141.113C109.985 138.014 110.69 135.238 112.114 132.786C113.539 130.334 115.562 128.423 118.186 127.054C120.825 125.67 123.83 124.985 127.204 125ZM127.271 132.673C125.022 132.673 123.148 133.455 121.649 135.02C120.15 136.585 119.415 138.525 119.445 140.842C119.415 143.144 120.135 145.07 121.604 146.619C123.088 148.169 124.947 148.944 127.181 148.944C129.385 148.944 131.244 148.154 132.758 146.574C134.287 144.979 135.067 143.054 135.097 140.797C135.067 138.54 134.31 136.622 132.826 135.043C131.341 133.463 129.49 132.673 127.271 132.673Z" fill="white"/>
<path d="M170.403 173C164.571 172.985 160.006 170.864 156.708 166.636C153.424 162.394 151.79 156.489 151.805 148.921C151.82 141.384 153.469 135.539 156.752 131.387C160.036 127.219 164.586 125.136 170.403 125.136C176.204 125.136 180.754 127.227 184.053 131.409C187.366 135.577 189.015 141.414 189 148.921C188.985 156.519 187.336 162.431 184.053 166.659C180.769 170.886 176.219 173 170.403 173ZM170.403 164.898C173.101 164.898 175.222 163.537 176.767 160.814C178.311 158.091 179.075 154.127 179.06 148.921C179.06 143.791 178.288 139.879 176.744 137.186C175.2 134.493 173.086 133.147 170.403 133.147C167.704 133.147 165.583 134.493 164.039 137.186C162.509 139.864 161.737 143.776 161.722 148.921C161.707 154.127 162.472 158.091 164.016 160.814C165.56 163.537 167.689 164.898 170.403 164.898Z" fill="white"/>
<path d="M324.998 180C323.494 180 322.138 179.728 320.929 179.184C319.72 178.633 318.77 177.87 318.079 176.895C317.389 175.913 317.029 174.804 317 173.567H321.533C321.584 174.401 321.936 175.083 322.591 175.613C323.253 176.136 324.055 176.397 324.998 176.397C326.099 176.397 326.998 176.044 327.696 175.337C328.401 174.624 328.754 173.705 328.754 172.582C328.754 171.444 328.394 170.519 327.675 169.805C326.962 169.085 326.049 168.721 324.933 168.714C324.271 168.714 323.638 168.848 323.034 169.117C322.436 169.378 321.969 169.731 321.63 170.176L317.475 169.445L318.522 158H332.035V161.751H322.375L321.803 167.188H321.933C322.336 166.637 322.929 166.188 323.714 165.842C324.505 165.496 325.376 165.323 326.326 165.323C327.635 165.323 328.819 165.627 329.877 166.234C330.934 166.842 331.762 167.693 332.359 168.788C332.956 169.876 333.255 171.102 333.255 172.465C333.255 173.553 333.053 174.564 332.651 175.496C332.255 176.422 331.697 177.216 330.978 177.881C330.265 178.545 329.391 179.064 328.355 179.438C327.326 179.813 326.207 180 324.998 180Z" fill="white"/>
<path d="M336.18 175.888V172.275L345.408 158H351.258V172.211H354V175.888H351.258V179.703H346.79V175.888H336.18ZM346.876 172.211V163.002H346.704L340.886 172.041V172.211H346.876Z" fill="white"/>
<path d="M273.423 350.414V343.89L288.855 329.774C289.97 328.714 290.845 327.843 291.48 327.16C292.13 326.477 292.743 325.738 293.322 324.943C293.901 324.148 294.31 323.381 294.55 322.643C294.79 321.904 294.91 321.116 294.91 320.279C294.91 318.425 294.282 316.947 293.026 315.846C291.784 314.731 290.196 314.173 288.263 314.173C286.273 314.173 284.678 314.766 283.479 315.951C282.279 317.136 281.686 318.746 281.7 320.781H273C273 318.021 273.642 315.595 274.926 313.504C276.211 311.413 278.01 309.809 280.324 308.694C282.639 307.565 285.306 307 288.326 307C292.941 307 296.667 308.178 299.503 310.534C302.34 312.89 303.758 315.937 303.758 319.673C303.758 321.36 303.434 322.963 302.785 324.483C302.135 326.003 300.992 327.731 299.355 329.669C297.732 331.607 295.432 333.914 292.454 336.591L286.125 342.719V343.011H304.33V350.414H273.423Z" fill="white"/>
<path d="M326.806 351C323.856 351 321.196 350.463 318.825 349.39C316.454 348.302 314.591 346.797 313.237 344.873C311.882 342.935 311.176 340.746 311.12 338.306H320.011C320.109 339.951 320.801 341.297 322.085 342.342C323.384 343.374 324.957 343.89 326.806 343.89C328.965 343.89 330.729 343.193 332.098 341.798C333.481 340.39 334.173 338.578 334.173 336.361C334.173 334.117 333.467 332.29 332.056 330.882C330.659 329.46 328.866 328.742 326.679 328.728C325.38 328.728 324.139 328.993 322.953 329.523C321.782 330.039 320.864 330.736 320.201 331.614L312.051 330.171L314.105 307.586H340.608V314.989H321.662L320.54 325.717H320.794C321.584 324.629 322.749 323.744 324.287 323.061C325.839 322.378 327.547 322.036 329.41 322.036C331.978 322.036 334.3 322.636 336.374 323.835C338.449 325.034 340.072 326.714 341.243 328.875C342.414 331.022 343 333.44 343 336.131C343 338.278 342.605 340.272 341.815 342.112C341.038 343.939 339.945 345.507 338.533 346.817C337.136 348.128 335.422 349.153 333.389 349.892C331.371 350.631 329.177 351 326.806 351Z" fill="white"/>
<defs>
<linearGradient id="paint0_linear" x1="387.024" y1="114.849" x2="274.931" y2="242.06" gradientUnits="userSpaceOnUse">
<stop stop-color="#00C794"/>
<stop offset="1" stop-color="#38E7BB"/>
</linearGradient>
<linearGradient id="paint1_linear" x1="247.314" y1="460.244" x2="370.633" y2="180.933" gradientUnits="userSpaceOnUse">
<stop stop-color="#FF816E"/>
<stop offset="1" stop-color="#BA1E06" stop-opacity="0.76"/>
</linearGradient>
<linearGradient id="paint2_linear" x1="199.847" y1="44.4581" x2="106.572" y2="299.002" gradientUnits="userSpaceOnUse">
<stop stop-color="#5E1BFF"/>
<stop offset="1" stop-color="#A17BFD"/>
</linearGradient>
</defs>
</svg>
