<svg width="566" height="516" viewBox="0 0 566 516" fill="none" xmlns="http://www.w3.org/2000/svg">
<line x1="13.5" y1="459" x2="13.5" y2="2.18557e-08" stroke="#C5C9D0" stroke-dasharray="20 20"/>
<line x1="104" y1="459" x2="104" y2="2.10105e-08" stroke="#C5C9D0" stroke-dasharray="20 20"/>
<line x1="285" y1="459" x2="285" y2="2.10105e-08" stroke="#C5C9D0" stroke-dasharray="20 20"/>
<line x1="556.5" y1="459" x2="556.5" y2="2.10105e-08" stroke="#C5C9D0" stroke-dasharray="20 20"/>
<line x1="466" y1="459" x2="466" y2="2.10105e-08" stroke="#C5C9D0" stroke-dasharray="20 20"/>
<line x1="375.5" y1="459" x2="375.5" y2="2.10105e-08" stroke="#C5C9D0" stroke-dasharray="20 20"/>
<line x1="194.5" y1="459" x2="194.5" y2="2.10105e-08" stroke="#C5C9D0" stroke-dasharray="20 20"/>
<path fill-rule="evenodd" clip-rule="evenodd" d="M370.789 203.06C380.885 200.351 390.645 205.288 402.968 211.873L403.151 211.971C408.962 215.076 415.274 218.449 421.862 220.647L421.922 220.667L421.982 220.685C431.167 223.494 440.693 223.494 449.361 223.493L449.692 223.493C458.684 223.493 466.786 223.53 474.393 225.838C474.476 225.901 474.705 226.087 475.073 226.52C475.739 227.303 476.531 228.501 477.435 230.153C479.246 233.459 481.103 237.817 483.077 242.537C483.224 242.889 483.372 243.244 483.521 243.6C485.31 247.882 487.187 252.377 489.078 256.095C490.106 258.118 491.211 260.059 492.397 261.694C493.524 263.248 495.027 264.956 496.984 266.004L497.111 266.072C502.326 268.865 507.764 271.777 513.151 273.975C518.588 276.193 524.316 277.833 530.13 277.833C540.559 277.833 550.315 273.285 558.865 269.299C559.022 269.226 559.18 269.152 559.337 269.079C560.351 268.607 561.351 268.141 562.349 267.682C564.858 266.529 565.957 263.56 564.804 261.051C563.65 258.541 560.681 257.442 558.172 258.596C557.147 259.067 556.124 259.544 555.114 260.015L555.113 260.015C545.994 264.265 538.136 267.833 530.13 267.833C526.141 267.833 521.78 266.696 516.928 264.716C512.07 262.734 507.061 260.057 501.705 257.189C501.707 257.19 501.706 257.189 501.7 257.185C501.648 257.146 501.226 256.834 500.492 255.823C499.741 254.788 498.907 253.362 497.992 251.563C496.279 248.196 494.544 244.041 492.709 239.651C492.574 239.328 492.439 239.004 492.302 238.678C490.371 234.059 488.314 229.199 486.207 225.35C485.152 223.424 483.984 221.561 482.689 220.04C481.482 218.62 479.724 216.969 477.354 216.286C468.184 213.492 458.676 213.493 450.023 213.493L449.692 213.493C440.691 213.493 432.581 213.457 424.966 211.141C419.273 209.234 413.67 206.253 407.681 203.053C407.423 202.916 407.165 202.777 406.905 202.638C395.593 196.587 382.304 189.479 367.915 193.479L367.721 193.533L367.532 193.602C361.737 195.729 356.126 199.854 350.834 204.552C345.528 209.261 340.158 214.9 334.913 220.409L334.824 220.502C327.024 228.695 319.521 236.549 312.135 241.888L311.969 242.009L311.813 242.142C309.287 244.305 306.796 246.519 304.327 248.715C298.167 254.192 292.136 259.554 286.008 263.714C277.386 269.568 270.348 271.755 264.291 269.532L264.102 269.463L263.908 269.409C263.197 269.211 262.493 269.017 261.797 268.824C255.73 267.147 250.17 265.611 244.658 263.334C237.886 260.537 231.308 260.528 225.304 261.066C222.987 261.274 220.875 261.54 218.853 261.794C215.288 262.242 212.004 262.654 208.379 262.654C203.912 262.654 199.974 264.911 196.809 267.368C193.57 269.883 190.417 273.19 187.504 276.359C186.836 277.086 186.181 277.806 185.535 278.515C183.26 281.012 181.102 283.381 178.927 285.485C176.107 288.211 173.722 290.017 171.694 290.862C165.626 293.389 159.903 295.768 154.42 297.445L154.36 297.463L154.3 297.483C144.829 300.643 135.306 302.137 125.577 303.652L125.402 303.68C117.072 304.977 108.523 306.309 100.295 308.818C94.4132 310.441 88.8373 310.095 82.3921 309.696C81.039 309.612 79.6476 309.526 78.207 309.455C70.1354 309.058 61.1375 309.285 51.8441 315.035L51.8404 315.037C49.5382 316.462 47.2286 317.891 44.8939 319.319C37.532 323.821 30.1362 328.339 22.7529 331.81C15.3594 335.286 11.355 337.526 4.84174 337.732C2.08173 337.82 -0.0848389 340.128 0.00256348 342.888C0.0900269 345.648 2.39832 347.815 5.15839 347.727C13.6205 347.459 19.0517 344.6 27.0078 340.86C34.9307 337.135 42.7564 332.348 49.993 327.922L50.1116 327.85C52.4655 326.41 54.7908 324.971 57.0836 323.553L57.1055 323.539C63.765 319.419 70.2364 319.075 77.7156 319.443C78.8728 319.5 80.0742 319.578 81.3135 319.658C87.8126 320.081 95.3548 320.571 103.032 318.437L103.093 318.419L103.155 318.401C110.662 316.105 118.579 314.863 127.116 313.533L127.285 313.507C136.837 312.019 147.095 310.421 157.405 306.989C163.38 305.157 169.504 302.607 175.413 300.146L175.539 300.093C179.349 298.507 182.831 295.62 185.878 292.673C188.305 290.327 190.749 287.642 193.056 285.109C193.67 284.434 194.275 283.77 194.867 283.126C197.789 279.947 200.438 277.21 202.941 275.267C205.517 273.268 207.257 272.654 208.379 272.654C212.577 272.654 217.005 272.108 220.976 271.617C222.841 271.387 224.605 271.169 226.198 271.026C231.578 270.543 236.26 270.685 240.84 272.577C246.954 275.102 253.118 276.803 259.11 278.457C259.757 278.636 260.403 278.814 261.046 278.993C271.855 282.854 282.522 278.168 291.625 271.988C298.332 267.434 305.141 261.38 311.481 255.743C313.78 253.7 316.016 251.711 318.164 249.869C326.317 243.94 334.353 235.499 341.861 227.613L342.066 227.398C347.411 221.785 352.51 216.434 357.471 212.031C362.398 207.659 366.821 204.562 370.789 203.06Z" fill="#01DDA5"/>
<path d="M363.15 496.625C360.583 496.625 358.557 497.449 357.096 499.145C355.683 500.747 355 502.82 355 505.387C355 507.931 355.683 510.004 357.096 511.606C358.557 513.255 360.583 514.103 363.15 514.103C364.893 514.103 366.377 513.726 367.626 512.972C368.238 513.796 368.851 514.668 369.487 515.587L371.135 514.126C370.523 513.231 369.887 512.383 369.275 511.559C370.641 509.957 371.324 507.908 371.324 505.387C371.324 502.796 370.617 500.7 369.204 499.121C367.72 497.449 365.694 496.625 363.15 496.625ZM363.15 498.886C364.94 498.886 366.33 499.451 367.296 500.629C368.238 501.783 368.733 503.361 368.733 505.387C368.733 507.107 368.379 508.496 367.673 509.58C366.825 508.591 365.977 507.625 365.129 506.73L363.645 508.19C364.469 509.062 365.317 510.027 366.165 511.087C365.341 511.582 364.328 511.841 363.15 511.841C361.36 511.841 359.97 511.229 358.981 510.051C358.039 508.897 357.568 507.342 357.568 505.387C357.568 503.408 358.039 501.854 358.981 500.7C359.97 499.475 361.36 498.886 363.15 498.886Z" fill="#929AA6"/>
<path d="M379.508 496.625C377.859 496.625 376.516 497.072 375.48 498.014C374.373 498.956 373.76 500.252 373.619 501.924H376.139C376.234 500.888 376.587 500.111 377.152 499.592C377.718 499.074 378.519 498.815 379.531 498.815C380.521 498.815 381.298 499.027 381.816 499.498C382.287 499.946 382.547 500.582 382.547 501.43C382.547 502.278 382.264 502.937 381.746 503.385C381.227 503.832 380.45 504.068 379.414 504.068H378.212V506H379.437C380.544 506 381.392 506.235 381.958 506.706C382.57 507.177 382.876 507.908 382.876 508.897C382.876 509.745 382.57 510.428 382.005 510.993C381.345 511.606 380.474 511.935 379.39 511.935C378.401 511.935 377.6 511.653 376.987 511.087C376.281 510.475 375.927 509.603 375.88 508.473H373.289C373.431 510.357 374.09 511.794 375.268 512.783C376.304 513.655 377.694 514.103 379.414 514.103C381.204 514.103 382.688 513.584 383.819 512.595C384.878 511.606 385.42 510.334 385.42 508.779C385.42 507.79 385.138 506.965 384.572 506.329C384.054 505.717 383.3 505.246 382.311 504.94C384.148 504.327 385.09 503.079 385.09 501.241C385.09 499.804 384.572 498.674 383.583 497.849C382.547 497.025 381.204 496.625 379.508 496.625Z" fill="#929AA6"/>
<path d="M190.15 496.625C187.583 496.625 185.557 497.449 184.097 499.145C182.683 500.747 182 502.82 182 505.387C182 507.931 182.683 510.004 184.097 511.606C185.557 513.255 187.583 514.103 190.15 514.103C191.893 514.103 193.377 513.726 194.626 512.972C195.238 513.796 195.851 514.668 196.487 515.587L198.136 514.126C197.523 513.231 196.887 512.383 196.275 511.559C197.641 509.957 198.324 507.908 198.324 505.387C198.324 502.796 197.617 500.7 196.204 499.121C194.72 497.449 192.694 496.625 190.15 496.625ZM190.15 498.886C191.94 498.886 193.33 499.451 194.296 500.629C195.238 501.783 195.733 503.361 195.733 505.387C195.733 507.107 195.38 508.496 194.673 509.58C193.825 508.591 192.977 507.625 192.129 506.73L190.645 508.19C191.469 509.062 192.317 510.027 193.165 511.087C192.341 511.582 191.328 511.841 190.15 511.841C188.36 511.841 186.97 511.229 185.981 510.051C185.039 508.897 184.568 507.342 184.568 505.387C184.568 503.408 185.039 501.854 185.981 500.7C186.97 499.475 188.36 498.886 190.15 498.886Z" fill="#929AA6"/>
<path d="M206.602 496.625C204.812 496.625 203.352 497.213 202.268 498.438C201.208 499.569 200.666 501.076 200.643 502.961H203.21C203.257 501.595 203.54 500.582 204.105 499.875C204.647 499.145 205.448 498.792 206.508 498.792C207.497 498.792 208.275 499.027 208.793 499.498C209.311 499.969 209.57 500.676 209.57 501.618C209.57 502.608 209.17 503.526 208.416 504.374C207.945 504.869 207.144 505.505 206.013 506.306C204.105 507.625 202.833 508.638 202.221 509.368C201.09 510.64 200.548 512.1 200.548 513.773H212.138V511.511H203.728C204.082 510.593 205.165 509.533 206.979 508.331C208.651 507.201 209.806 506.306 210.465 505.623C211.549 504.421 212.114 503.102 212.114 501.642C212.114 500.158 211.596 498.956 210.583 498.014C209.547 497.072 208.204 496.625 206.602 496.625Z" fill="#929AA6"/>
<path d="M536.15 496.624C533.583 496.624 531.557 497.448 530.096 499.144C528.683 500.746 528 502.819 528 505.387C528 507.931 528.683 510.003 530.096 511.605C531.557 513.254 533.583 514.102 536.15 514.102C537.893 514.102 539.377 513.725 540.626 512.971C541.238 513.796 541.851 514.667 542.487 515.586L544.135 514.126C543.523 513.231 542.887 512.383 542.275 511.558C543.641 509.956 544.324 507.907 544.324 505.387C544.324 502.796 543.617 500.699 542.204 499.121C540.72 497.448 538.694 496.624 536.15 496.624ZM536.15 498.885C537.94 498.885 539.33 499.451 540.296 500.628C541.238 501.783 541.733 503.361 541.733 505.387C541.733 507.106 541.379 508.496 540.673 509.579C539.825 508.59 538.977 507.624 538.129 506.729L536.645 508.19C537.469 509.061 538.317 510.027 539.165 511.087C538.341 511.582 537.328 511.841 536.15 511.841C534.36 511.841 532.97 511.228 531.981 510.051C531.039 508.896 530.568 507.342 530.568 505.387C530.568 503.408 531.039 501.853 531.981 500.699C532.97 499.474 534.36 498.885 536.15 498.885Z" fill="#929AA6"/>
<path d="M554.039 496.954L545.747 507.695V510.121H553.945V513.772H556.394V510.121H558.938V508.072H556.394V496.954H554.039ZM553.874 500.204H553.945V508.072H547.844L553.874 500.204Z" fill="#929AA6"/>
<path d="M22.8063 496.852C20.2388 496.852 18.213 497.676 16.7526 499.372C15.3393 500.974 14.6562 503.047 14.6562 505.614C14.6562 508.158 15.3393 510.231 16.7526 511.833C18.213 513.482 20.2388 514.33 22.8063 514.33C24.5494 514.33 26.0334 513.953 27.2818 513.199C27.8943 514.023 28.5067 514.895 29.1427 515.814L30.7916 514.353C30.1791 513.458 29.5431 512.61 28.9307 511.786C30.2969 510.184 30.98 508.135 30.98 505.614C30.98 503.023 30.2734 500.927 28.86 499.348C27.3761 497.676 25.3503 496.852 22.8063 496.852ZM22.8063 499.113C24.5965 499.113 25.9863 499.678 26.9521 500.856C27.8943 502.01 28.3889 503.588 28.3889 505.614C28.3889 507.334 28.0356 508.723 27.3289 509.807C26.481 508.818 25.633 507.852 24.785 506.957L23.301 508.417C24.1254 509.289 24.9734 510.255 25.8214 511.315C24.997 511.809 23.9841 512.068 22.8063 512.068C21.0161 512.068 19.6264 511.456 18.637 510.278C17.6948 509.124 17.2237 507.569 17.2237 505.614C17.2237 503.635 17.6948 502.081 18.637 500.927C19.6264 499.702 21.0161 499.113 22.8063 499.113Z" fill="#929AA6"/>
<path d="M37.3974 497.181C36.832 497.794 36.1254 498.336 35.2774 498.854C34.4294 499.325 33.6521 499.655 32.8983 499.843V502.387C34.453 501.94 35.7485 501.233 36.7614 500.267V514H39.3289V497.181H37.3974Z" fill="#929AA6"/>
<path d="M314.16 126.657C311.439 126.657 308.984 126.156 306.797 125.154C304.609 124.138 302.891 122.732 301.641 120.935C300.391 119.125 299.74 117.081 299.688 114.802H307.891C307.982 116.338 308.62 117.595 309.805 118.572C311.003 119.535 312.454 120.017 314.16 120.017C316.152 120.017 317.78 119.366 319.043 118.064C320.319 116.749 320.957 115.056 320.957 112.986C320.957 110.889 320.306 109.183 319.004 107.868C317.715 106.54 316.061 105.87 314.043 105.857C312.845 105.857 311.699 106.104 310.605 106.599C309.525 107.081 308.678 107.732 308.066 108.552L300.547 107.204L302.441 86.1106H326.895V93.0246H309.414L308.379 103.044H308.613C309.342 102.029 310.417 101.202 311.836 100.564C313.268 99.9257 314.844 99.6067 316.562 99.6067C318.932 99.6067 321.074 100.167 322.988 101.286C324.902 102.406 326.4 103.975 327.48 105.993C328.561 107.999 329.102 110.258 329.102 112.771C329.102 114.776 328.737 116.638 328.008 118.357C327.292 120.062 326.283 121.527 324.98 122.751C323.691 123.975 322.109 124.932 320.234 125.622C318.372 126.312 316.348 126.657 314.16 126.657Z" fill="#00162F"/>
<path d="M349.473 85.4465C351.178 85.4465 352.786 85.6548 354.297 86.0715C355.807 86.4882 357.253 87.1848 358.633 88.1613C360.013 89.1379 361.198 90.3619 362.188 91.8332C363.177 93.3046 363.965 95.1731 364.551 97.4387C365.15 99.6913 365.449 102.237 365.449 105.075C365.436 111.807 363.965 117.087 361.035 120.915C358.118 124.743 354.167 126.657 349.18 126.657C345.26 126.657 342.005 125.544 339.414 123.318C336.823 121.091 335.326 118.259 334.922 114.822H343.262C343.587 116.267 344.271 117.393 345.312 118.2C346.354 119.008 347.643 119.411 349.18 119.411C351.758 119.411 353.73 118.292 355.098 116.052C356.465 113.812 357.155 110.681 357.168 106.657H356.895C356.009 108.402 354.661 109.782 352.852 110.798C351.042 111.801 349.03 112.302 346.816 112.302C345.072 112.302 343.438 111.983 341.914 111.345C340.391 110.694 339.082 109.802 337.988 108.669C336.908 107.536 336.055 106.169 335.43 104.568C334.818 102.966 334.518 101.241 334.531 99.3918C334.518 96.7095 335.13 94.3072 336.367 92.1848C337.604 90.0624 339.362 88.4087 341.641 87.2238C343.932 86.0259 346.543 85.4335 349.473 85.4465ZM349.531 92.0871C347.578 92.0871 345.951 92.7642 344.648 94.1184C343.346 95.4725 342.708 97.1522 342.734 99.1574C342.708 101.15 343.333 102.816 344.609 104.157C345.898 105.499 347.513 106.169 349.453 106.169C351.367 106.169 352.982 105.486 354.297 104.118C355.625 102.738 356.302 101.072 356.328 99.1184C356.302 97.1653 355.645 95.5051 354.355 94.1379C353.066 92.7707 351.458 92.0871 349.531 92.0871Z" fill="#00162F"/>
<path d="M374.585 126.618C373.296 126.618 372.189 126.163 371.265 125.251C370.34 124.327 369.884 123.22 369.897 121.931C369.884 120.655 370.34 119.561 371.265 118.65C372.189 117.738 373.296 117.282 374.585 117.282C375.848 117.282 376.942 117.738 377.866 118.65C378.791 119.561 379.259 120.655 379.272 121.931C379.259 123.22 378.791 124.327 377.866 125.251C376.942 126.163 375.848 126.618 374.585 126.618Z" fill="#00162F"/>
<path d="M398.433 86.1106V126.111H389.976V94.1379H389.741L380.581 99.8801V92.3801L390.483 86.1106H398.433Z" fill="#00162F"/>
<path d="M408.174 126.111V86.1106H416.631V103.747H417.158L431.553 86.1106H441.689L426.846 104.021L441.865 126.111H431.748L420.791 109.665L416.631 114.743V126.111H408.174Z" fill="#00162F"/>
<path d="M411 201.5C411 220.554 395.554 236 376.5 236C357.446 236 342 220.554 342 201.5C342 182.446 357.446 167 376.5 167C395.554 167 411 182.446 411 201.5Z" fill="#01DDA5" fill-opacity="0.4"/>
<path d="M402.196 201.466C402.196 215.776 390.595 227.377 376.285 227.377C361.975 227.377 350.374 215.776 350.374 201.466C350.374 187.156 361.975 175.555 376.285 175.555C390.595 175.555 402.196 187.156 402.196 201.466Z" fill="#01DDA5"/>
</svg>
