<svg width="64" height="40" viewBox="0 0 64 40" fill="none" xmlns="http://www.w3.org/2000/svg">
<g clip-path="url(#clip0)">
<rect width="64" height="40" fill="black"/>
<path fill-rule="evenodd" clip-rule="evenodd" d="M37.0672 29.5384H26.9297V11.4375H37.0674L37.0672 29.5384Z" fill="#FF5F00"/>
<path fill-rule="evenodd" clip-rule="evenodd" d="M27.5738 20.4884C27.5738 16.8166 29.3042 13.5458 31.9986 11.4379C29.9594 9.84031 27.4359 8.97271 24.839 8.97658C18.4406 8.97658 13.2539 14.1305 13.2539 20.4884C13.2539 26.8462 18.4406 32.0001 24.839 32.0001C27.4359 32.0039 29.9596 31.1363 31.9989 29.5388C29.3046 27.4312 27.5738 24.1603 27.5738 20.4884" fill="#EB001B"/>
<path fill-rule="evenodd" clip-rule="evenodd" d="M50.7458 20.4884C50.7458 26.8461 45.5592 32.0001 39.1609 32.0001C36.5636 32.0038 34.0397 31.1363 32 29.5388C34.6953 27.4309 36.4257 24.1603 36.4257 20.4884C36.4257 16.8164 34.6953 13.5458 32 11.4379C34.0396 9.84031 36.5635 8.97283 39.1606 8.97657C45.5591 8.97657 50.7457 14.1305 50.7457 20.4884" fill="#F79410"/>
</g>
<defs>
<clipPath id="clip0">
<rect width="64" height="40" fill="white"/>
</clipPath>
</defs>
</svg>
