<?xml version="1.0"?>
<svg xmlns="http://www.w3.org/2000/svg" xmlns:xlink="http://www.w3.org/1999/xlink" version="1.1" id="Capa_1" x="0px" y="0px" viewBox="0 0 512 512" style="enable-background:new 0 0 512 512;" xml:space="preserve" width="512px" height="512px"><g><g>
	<g>
		<path d="M437.02,127.48C388.667,79.129,324.38,52.5,256,52.5S123.333,79.129,74.98,127.48C26.629,175.833,0,240.12,0,308.5    c0,51.861,15.441,101.819,44.653,144.476l4.468,6.524h413.758l4.468-6.524C496.559,410.32,512,360.361,512,308.5    C512,240.12,485.371,175.833,437.02,127.48z M446.901,429.5H65.099C42.113,393.331,30,351.664,30,308.5    c0-124.617,101.383-226,226-226s226,101.383,226,226C482,351.664,469.888,393.331,446.901,429.5z" data-original="#000000" class="active-path" data-old_color="#000000" fill="#959AAA"/>
	</g>
</g><g>
	<g>
		<rect x="241" y="112.5" width="30" height="60" data-original="#000000" class="active-path" data-old_color="#000000" fill="#959AAA"/>
	</g>
</g><g>
	<g>
		<rect x="157.995" y="134.743" transform="matrix(0.866 -0.5 0.5 0.866 -59.1947 108.5714)" width="29.999" height="59.999" data-original="#000000" class="active-path" data-old_color="#000000" fill="#959AAA"/>
	</g>
</g><g>
	<g>
		<rect x="97.241" y="195.508" transform="matrix(0.5 -0.866 0.866 0.5 -139.1745 209.9531)" width="29.999" height="59.999" data-original="#000000" class="active-path" data-old_color="#000000" fill="#959AAA"/>
	</g>
</g><g>
	<g>
		<rect x="60" y="293.5" width="60" height="30" data-original="#000000" class="active-path" data-old_color="#000000" fill="#959AAA"/>
	</g>
</g><g>
	<g>
		<rect x="82.23" y="376.501" transform="matrix(0.866 -0.5 0.5 0.866 -180.7179 108.5694)" width="59.999" height="29.999" data-original="#000000" class="active-path" data-old_color="#000000" fill="#959AAA"/>
	</g>
</g><g>
	<g>
		<rect x="384.768" y="361.512" transform="matrix(0.5 -0.866 0.866 0.5 -139.1765 541.9576)" width="29.999" height="59.999" data-original="#000000" class="active-path" data-old_color="#000000" fill="#959AAA"/>
	</g>
</g><g>
	<g>
		<rect x="392" y="293.5" width="60" height="30" data-original="#000000" class="active-path" data-old_color="#000000" fill="#959AAA"/>
	</g>
</g><g>
	<g>
		<path d="M433.241,223.49l-15-25.98l-133.028,76.804C277.345,267.58,267.143,263.5,256,263.5c-24.813,0-45,20.187-45,45    s20.187,45,45,45s45-20.187,45-45c0-2.808-0.271-5.552-0.766-8.218L433.241,223.49z M256,323.5c-8.271,0-15-6.729-15-15    s6.729-15,15-15s15,6.729,15,15S264.271,323.5,256,323.5z" data-original="#000000" class="active-path" data-old_color="#000000" fill="#959AAA"/>
	</g>
</g><g>
	<g>
		<rect x="308.995" y="149.735" transform="matrix(0.5 -0.866 0.866 0.5 26.8298 375.9409)" width="59.999" height="29.999" data-original="#000000" class="active-path" data-old_color="#000000" fill="#959AAA"/>
	</g>
</g></g> </svg>
