<?xml version="1.0"?>
<svg xmlns="http://www.w3.org/2000/svg" id="Layer_1" enable-background="new 0 0 512.004 512.004" height="512px" viewBox="0 0 512.004 512.004" width="512px"><g><path d="m505.853 18.685c-1.268-6.333-6.219-11.283-12.553-12.55-86.928-17.382-177.766 2.697-249.229 55.08-1.495 1.095-2.846 2.523-3.847 4.021-3.559 5.33-2.694 8.582-2.694 28.388l-4.208-4.208c-6.151-6.153-16.092-6.262-22.376-.246-2.091 2.001 5.847-5.909-114.534 114.47-20.901 20.901-32.412 48.688-32.412 78.241v143.476l-59.313 59.313c-6.249 6.248-6.249 16.379 0 22.627 6.249 6.249 16.379 6.248 22.627 0l59.313-59.313h143.477c29.555 0 57.342-11.511 78.241-32.412l22.268-22.267c11.43-3.43 15.333-18.003 6.701-26.634l-12.846-12.846c41.884 0 41.351.532 45.741-1.511 6.475-.896 11.699-5.657 13.281-11.886 39.872-39.871 76.978-71.905 104.629-139.028 24.789-60.178 29.51-123.852 17.734-182.715zm-109.213 263.34-38.46 38.459h-70.277c-5.111-1.281-10.717-.008-14.814 3.824-8.719 5.511-9.975 17.627-2.771 24.831l29.604 29.604-14.204 14.203c-14.855 14.857-34.606 23.039-55.613 23.039h-111.478l276.687-276.687c6.249-6.248 6.249-16.379 0-22.627-6.248-6.248-16.379-6.248-22.627 0l-276.687 276.686v-111.476c0-21.006 8.183-40.757 23.039-55.614l102.94-102.938c21.524 21.523 22.761 24.234 30.182 24.854 8.147.71 15.598-4.882 17.093-13.025.396-2.151.276 1.06.276-52.787 60.227-41.566 134.631-58.362 206.861-46.771 14.275 88.872-13.635 180.309-79.751 246.425z" data-original="#000000" class="active-path" data-old_color="#000000" fill="#959AAA"/></g> </svg>
