<?xml version="1.0"?>
<svg xmlns="http://www.w3.org/2000/svg" id="Capa_1" enable-background="new 0 0 512 512" height="512px" viewBox="0 0 512 512" width="512px"><g><path d="m452 38.667h-58v-18.667c0-11.046-8.954-20-20-20s-20 8.954-20 20v18.667h-196v-18.667c0-11.046-8.954-20-20-20s-20 8.954-20 20v18.667h-58c-33.084 0-60 26.916-60 60v353.333c0 33.084 26.916 60 60 60h392c33.084 0 60-26.916 60-60v-353.333c0-33.084-26.916-60-60-60zm-392 40h58v20c0 11.046 8.954 20 20 20s20-8.954 20-20v-20h196v20c0 11.046 8.954 20 20 20s20-8.954 20-20v-20h58c11.028 0 20 8.972 20 20v58.667h-432v-58.667c0-11.028 8.972-20 20-20zm392 393.333h-392c-11.028 0-20-8.972-20-20v-254.667h432v254.667c0 11.028-8.972 20-20 20zm-274.333-187.333c0 11.046-8.954 20-20 20h-39.334c-11.046 0-20-8.954-20-20s8.954-20 20-20h39.334c11.046 0 20 8.954 20 20zm118 0c0 11.046-8.954 20-20 20h-39.334c-11.046 0-20-8.954-20-20s8.954-20 20-20h39.334c11.046 0 20 8.954 20 20zm118 0c0 11.046-8.954 20-20 20h-39.334c-11.046 0-20-8.954-20-20s8.954-20 20-20h39.334c11.046 0 20 8.954 20 20zm-236 99.333c0 11.046-8.954 20-20 20h-39.334c-11.046 0-20-8.954-20-20s8.954-20 20-20h39.334c11.046 0 20 8.954 20 20zm118 0c0 11.046-8.954 20-20 20h-39.334c-11.046 0-20-8.954-20-20s8.954-20 20-20h39.334c11.046 0 20 8.954 20 20zm118 0c0 11.046-8.954 20-20 20h-39.334c-11.046 0-20-8.954-20-20s8.954-20 20-20h39.334c11.046 0 20 8.954 20 20z" data-original="#000000" class="active-path" data-old_color="#000000" fill="#959AAA"/></g> </svg>
