<svg width="40" height="34" viewBox="0 0 40 34" fill="none" xmlns="http://www.w3.org/2000/svg">
<path fill-rule="evenodd" clip-rule="evenodd" d="M0.657156 15.1C2.82584 6.38333 10.6533 0.264679 19.6357 0.264679C28.6181 0.264679 36.4456 6.38333 38.6143 15.1H36.9C34.0081 15.0574 31.1755 15.9217 28.8 17.5714C28.6629 17.6707 28.5198 17.7613 28.3714 17.8428H28.1714C28.0231 17.7613 27.88 17.6707 27.7429 17.5714C22.8407 14.275 16.4307 14.275 11.5286 17.5714C11.3915 17.6707 11.2484 17.7613 11.1 17.8428H10.9C10.7517 17.7613 10.6085 17.6707 10.4714 17.5714C8.09592 15.9217 5.26332 15.0574 2.37144 15.1H0.657156ZM33.8143 24.0571C34.6943 23.3718 35.785 23.0133 36.9 23.0429H39.2V18.4571H36.9C34.9361 18.4334 33.017 19.0447 31.4286 20.2C29.5938 21.5527 27.0919 21.5527 25.2572 20.2C21.9215 17.878 17.4928 17.878 14.1572 20.2C12.3224 21.5527 9.82051 21.5527 7.98573 20.2C6.37773 19.0299 4.43115 18.4178 2.44287 18.4571H0.0714417V23.0429H2.37144C3.48645 23.0133 4.57714 23.3718 5.45716 24.0571C8.78707 26.3809 13.213 26.3809 16.5429 24.0571C17.424 23.3739 18.5139 23.0156 19.6286 23.0429C20.7439 23.0109 21.8354 23.3697 22.7143 24.0571C26.05 26.3792 30.4786 26.3792 33.8143 24.0571ZM36.9 31.2428C35.785 31.2133 34.6943 31.5718 33.8143 32.2571C30.4786 34.5792 26.05 34.5792 22.7143 32.2571C21.8354 31.5697 20.7439 31.2109 19.6286 31.2428C18.5139 31.2156 17.424 31.5739 16.5429 32.2571C13.213 34.5809 8.78707 34.5809 5.45716 32.2571C4.57714 31.5718 3.48645 31.2133 2.37144 31.2428H0.0714417V26.6571H2.44287C4.43115 26.6178 6.37773 27.2299 7.98573 28.4C9.82051 29.7527 12.3224 29.7527 14.1572 28.4C17.4928 26.078 21.9215 26.078 25.2572 28.4C27.0919 29.7527 29.5938 29.7527 31.4286 28.4C33.017 27.2447 34.9361 26.6334 36.9 26.6571H39.2V31.2428H36.9Z" fill="#FFD2DD"/>
</svg>
